<svg id="Layer_1" data-name="Layer 1" xmlns="http://www.w3.org/2000/svg" viewBox="0 0 50 50"><defs><style>.cls-1{fill:#666;}</style></defs><title>Untitled-1</title><path class="cls-1" d="M305.5,373.61a22.5,22.5,0,1,1-22.5,22.5,22.53,22.53,0,0,1,22.5-22.5m0-2.5a25,25,0,1,0,25,25,25,25,0,0,0-25-25h0Z" transform="translate(-280.5 -371.11)"/><path class="cls-1" d="M295.71,387.51V391h-0.57c-0.28-1.85-1-2.72-2.15-2.72-1.35,0-2,1.37-2,4.05s0.67,3.87,2,3.87c1.11,0,1.91-.89,2.09-2.33h0.78c-0.3,2-1.44,3.05-3.31,3.05-2.33,0-3.94-1.85-3.94-4.56s1.69-4.7,4.05-4.7a2.81,2.81,0,0,1,2.15.85l0.57-1h0.37Z" transform="translate(-280.5 -371.11)"/><path class="cls-1" d="M300.47,384v11.09c0,0.95.13,1.07,1.13,1.13h0.2v0.52c-1.22-.09-1.68-0.11-2.5-0.11s-1.28,0-2.5.11V396.2H297c1-.06,1.13-0.18,1.13-1.13v-8.63c0-1.2-.11-1.33-1.11-1.33h-0.2v-0.48A19.33,19.33,0,0,0,300.47,384Z" transform="translate(-280.5 -371.11)"/><path class="cls-1" d="M302.35,388.7v-0.48a20.18,20.18,0,0,0,3.65-.65v6.37c0,1.37.39,1.94,1.35,1.94s1.52-.68,1.52-2V390c0-1.22-.09-1.32-1.18-1.32h-0.13v-0.48a20.48,20.48,0,0,0,3.65-.65v7.33c0,0.67.17,0.85,0.8,0.87l0.37,0,0.2,0v0.52a13,13,0,0,0-3.13.63,8.24,8.24,0,0,1-.24-1.67,2.78,2.78,0,0,1-2.68,1.52c-1.83,0-2.85-1.09-2.85-3V390c0-1.22-.09-1.32-1.18-1.32h-0.13Z" transform="translate(-280.5 -371.11)"/><path class="cls-1" d="M314.53,396.86V386.44c0-1.2-.11-1.33-1.11-1.33h-0.2v-0.48a18.21,18.21,0,0,0,3.63-.65v4.59a2.47,2.47,0,0,1,2-.85c2.18,0,3.74,1.91,3.74,4.55s-1.67,4.59-3.94,4.59a2.34,2.34,0,0,1-2.39-1.59L315,396.86h-0.48Zm2.3-4.61c0,2.87.48,4.09,1.63,4.09s1.72-1.28,1.72-4.24c0-2.68-.5-3.87-1.65-3.87S316.83,389.46,316.83,392.25Z" transform="translate(-280.5 -371.11)"/><path class="cls-1" d="M295.59,407.59V408a3.37,3.37,0,0,1-1,.14,1.15,1.15,0,0,1-1.31-1.18,1.85,1.85,0,0,1-1.79,1.19,1.72,1.72,0,0,1-1.89-1.7c0-1.22,1.15-2,3.49-2.29v-0.88c0-.84-0.27-1.19-1-1.19a0.8,0.8,0,0,0-.89.56,0.91,0.91,0,0,0,0,.18,1.49,1.49,0,0,1,.05.39,0.62,0.62,0,0,1-.68.69,0.56,0.56,0,0,1-.61-0.61c0-.9,1-1.62,2.35-1.62a2.2,2.2,0,0,1,2.16,1.14,4.13,4.13,0,0,1,.21,1.7v2.26c0,0.71.09,0.89,0.46,0.89A1.09,1.09,0,0,0,295.59,407.59Zm-2.46-3.08a3.61,3.61,0,0,0-1.12.37,1.41,1.41,0,0,0-.71,1.33,1,1,0,0,0,.89,1.22c0.68,0,.94-0.47.94-1.66v-1.26h0Z" transform="translate(-280.5 -371.11)"/><path class="cls-1" d="M298.62,399v7.83c0,0.67.09,0.76,0.8,0.8h0.14V408c-0.86-.07-1.19-0.08-1.76-0.08s-0.9,0-1.77.08v-0.36h0.14c0.71,0,.8-0.13.8-0.8v-6.09c0-.85-0.08-0.94-0.78-0.94H296v-0.34A13.6,13.6,0,0,0,298.62,399Z" transform="translate(-280.5 -371.11)"/><path class="cls-1" d="M305.14,406h0.51a2.39,2.39,0,0,1-2.54,2.12c-1.75,0-2.9-1.28-2.9-3.26s1.12-3.28,2.81-3.28a2.41,2.41,0,0,1,2.46,2,5.13,5.13,0,0,1,.17,1.29h-3.74a4.91,4.91,0,0,0,.27,1.95,1.33,1.33,0,0,0,1.31.8A1.69,1.69,0,0,0,305.14,406ZM304,404.43c-0.05-1.73-.33-2.44-1-2.44s-1,.75-1.1,2.44H304Z" transform="translate(-280.5 -371.11)"/><path class="cls-1" d="M306.38,402.3V402a8.9,8.9,0,0,0,2.11-.31,4.54,4.54,0,0,1,.2,1.11,1.81,1.81,0,0,1,1.59-1.14,1.22,1.22,0,0,1,1.28,1.26,0.63,0.63,0,0,1-.68.69,0.55,0.55,0,0,1-.64-0.47s0-.12,0-0.21a1.7,1.7,0,0,0,0-.31,0.31,0.31,0,0,0-.34-0.31c-0.63,0-1,.58-1,1.58v3c0,0.67.09,0.76,0.8,0.8h0.14V408c-0.86-.07-1.19-0.08-1.76-0.08s-0.9,0-1.76.08v-0.36h0.14c0.71,0,.8-0.13.8-0.8V403c0-.65-0.09-0.71-0.78-0.72h-0.17Z" transform="translate(-280.5 -371.11)"/><path class="cls-1" d="M315.69,407.07v0.52a2.49,2.49,0,0,1-1.52.51,1.57,1.57,0,0,1-1.71-1.86v-0.13l0.09-3.8h-0.77v-0.48c1,0,1.63-.68,1.93-1.95h0.51l0,1.93h1.32v0.5h-1.32l0,3.87c0,1,.14,1.29.64,1.29A1.32,1.32,0,0,0,315.69,407.07Z" transform="translate(-280.5 -371.11)"/><path class="cls-1" d="M316.62,408.21v-2.37H317c0.16,1.16.71,1.82,1.55,1.82a1.08,1.08,0,0,0,1.14-1,1.21,1.21,0,0,0-.88-1l-0.47-.26a4,4,0,0,1-1.52-1.11,1.66,1.66,0,0,1-.24-0.86,1.91,1.91,0,0,1,2.17-1.75,2.17,2.17,0,0,1,1.48.51l0.31-.68h0.25v2.17h-0.38c-0.14-1.06-.56-1.52-1.36-1.52a1,1,0,0,0-1.12.88c0,0.38.18,0.56,1,.94,1.84,0.94,2.21,1.29,2.21,2.2a2,2,0,0,1-2.21,2,2.23,2.23,0,0,1-1.67-.65l-0.35.73h-0.25Z" transform="translate(-280.5 -371.11)"/></svg>