<svg id="Layer_1" data-name="Layer 1" xmlns="http://www.w3.org/2000/svg" viewBox="0 0 200 200"><defs><style>.cls-1{fill:#fff;}</style></defs><title>Untitled-1</title><path id="_Compound_Path_" data-name="&lt;Compound Path&gt;" class="cls-1" d="M206,395.8a100,100,0,0,1,100-100h0a100,100,0,0,1,100,100h0a100,100,0,0,1-100,100h0a100,100,0,0,1-100-100h0ZM241.23,331a91.31,91.31,0,0,0-26.82,64.77h0a91.29,91.29,0,0,0,26.82,64.77h0A91.3,91.3,0,0,0,306,487.4h0a91.27,91.27,0,0,0,64.77-26.83h0a91.26,91.26,0,0,0,26.83-64.77h0A91.28,91.28,0,0,0,370.76,331h0A91.26,91.26,0,0,0,306,304.21h0A91.29,91.29,0,0,0,241.23,331h0Zm24.42,39.14H263c-0.58-4-1.58-8.58-5.17-11.25a8.63,8.63,0,0,0-5.08-1.67,7.55,7.55,0,0,0-5.75,2.5c-3.33,3.83-3.92,12.25-3.92,16.92,0,7.75,1.41,13.08,3.58,15.75a7.67,7.67,0,0,0,5.92,2.58c4.33,0,7.5-3.09,9-6.92a16.64,16.64,0,0,0,1-4.25l3.75,0.08a22.56,22.56,0,0,1-1.67,6.17c-2.67,5.58-8.17,8.42-14.25,8.42a17.22,17.22,0,0,1-11.42-4c-3.08-2.5-7.34-8-7.34-17.75a26.6,26.6,0,0,1,1.17-8.33c2.58-8.25,9.25-14.09,18.17-14.09a14.51,14.51,0,0,1,8.34,2.42,9.59,9.59,0,0,1,1.83,1.67l2.75-4.67h1.75v16.42Zm18.45,19.58a19,19,0,0,0,.25,2.92c0.67,2.33,2.42,2.25,6.09,2.5v2.5H266.69v-2.5c2.25-.17,3.92-0.25,4.75-0.67,1.67-.92,1.58-3.25,1.58-4.75V348.5c-0.08-2.58,0-4.33-.92-5.25-1-1.08-4.08-1-5.33-1v-2.1l17.34-3.08v52.69Zm3.82-32.51,17.34-3.08v30.17c0.08,1.5.08,4,.67,5.42a5.84,5.84,0,0,0,5.83,3.84,6.57,6.57,0,0,0,6-3.42c0.92-1.5,1.08-2.83,1.17-6.08v-18.5c0-2.59,0-4.5-.92-5.42-0.83-.75-2.92-0.83-5.34-0.83l0.08-1.93,17.34-3.08V389a5.06,5.06,0,0,0,.58,2.92c0.92,1.34,2.92,1.17,6,1.34v2.5l-15,2.92s-1-6.34-1.08-7.84a14.88,14.88,0,0,1-4.09,4.75,15.28,15.28,0,0,1-8.67,2.5c-5.92,0-11.33-2.91-13.09-8.92a18.2,18.2,0,0,1-.58-5.58v-18c-0.08-2.59,0-4.67-1.08-5.5s-4.17-.75-5.17-0.75v-2.08ZM340,348.5c-0.08-2.58,0-4.5-1-5.33-1.17-1.08-4-.92-5.25-0.92V340.3L351,337.22l0.08,21.53a11.81,11.81,0,0,1,9.5-4.08,15.6,15.6,0,0,1,8.17,2.17c6.84,4,9.58,12.17,9.58,19.59,0,2.67-.42,11.25-6.83,17.25a17.16,17.16,0,0,1-12.09,4.58c-5.33,0-9.25-2.42-11.25-7.58l-5.83,7.67H340V348.5Zm11.25,35.59a23.76,23.76,0,0,0,1.83,7.83,6.09,6.09,0,0,0,10.67,1.34c2.33-3,3.17-9.17,3.17-17.67,0-.5.08-8.42-1.5-13.09-1.08-3.08-2.83-5.33-6.25-5.33a7,7,0,0,0-2.67.5c-4.33,1.92-5,8.42-5.33,12.33-0.17,2.17-.25,4.34-0.25,6.59C350.92,379.09,351.09,381.59,351.26,384.09ZM295.46,428.2H283.69v30.21a17.41,17.41,0,0,0,.25,2.84c0.67,2.5,2.33,2.33,6.09,2.58v2.5c-3.92-.33-7.92-0.58-11.92-0.58s-7.92.25-11.84,0.58v-2.5c2.34-.17,4-0.17,4.92-0.75,1.42-.92,1.42-3,1.42-4.67V428.2h-6.34v-2.65c1.5,0,3.84.08,5.33-.75,1.33-.66,1.5-3.06,1.83-5.72,0.5-3.92.58-5.17,1.42-7.09,2.83-6.42,9.92-6.75,11.67-6.75a14.44,14.44,0,0,1,7.08,1.67,7.16,7.16,0,0,1,3.92,6.42c-0.08,2.5-1.42,4-4,4-0.42,0-4.17.08-4.17-3.17,0-1.25.5-2.42,0.5-3.67,0-2.17-1.42-2.83-2.42-2.75a2.67,2.67,0,0,0-1.75.67c-2,1.67-1.92,5.25-2,7.42v9.64h12.06m0,0c5.39-.23,5.47.33,17.31-2.89v35.84a8.36,8.36,0,0,0,.25,2.84c0.58,2.5,2.25,2.33,6.08,2.58v2.5c-4-.33-7.92-0.58-11.92-0.58s-7.92.25-11.92,0.58v-2.5c2.33-.17,4-0.17,4.92-0.75,1.42-.83,1.42-2.92,1.42-4.67V434.24c0-2.5.06-4.09-.91-5.12s-4.25-.92-5.5-0.92m6.72-15.94a6.37,6.37,0,0,1,2.07-4.64,4.93,4.93,0,0,1,3.21-1.14c3.21,0,5.36,2.86,5.36,5.86s-2.07,5.86-5.36,5.78S302.18,415.26,302.18,412.26Zm44.28,51.07a17.06,17.06,0,0,1-10.25,3.42c-1.33,0-6.08-.08-9.17-3.67-1.83-2.17-2.33-4.42-2.33-9.67l0.58-25.67h-5.17l0.08-2.83a11.14,11.14,0,0,0,7.75-3c3.83-3.5,5-9.25,5.34-10.67h3.42l-0.25,13.59h8.92l-0.08,2.92h-8.92l-0.17,26.08c0.17,3.33.09,5.33,0.83,6.67a3.77,3.77,0,0,0,3.58,2c3,0,5.33-2.17,6-2.67Zm11.19-52.42a1.73,1.73,0,0,1,.65.49,2.18,2.18,0,0,1,.35.59,2,2,0,0,1,.13.73,2.09,2.09,0,0,1-.25,1,1.4,1.4,0,0,1-.83.68,1.31,1.31,0,0,1,.68.55,2.3,2.3,0,0,1,.2,1.09v0.47a3.53,3.53,0,0,0,0,.65,0.58,0.58,0,0,0,.27.4v0.18h-1.61q-0.07-.23-0.09-0.37a3.43,3.43,0,0,1-.06-0.6v-0.65a1.32,1.32,0,0,0-.23-0.89,1.18,1.18,0,0,0-.83-0.22h-1.43v2.74h-1.43v-7h3.34A3,3,0,0,1,357.65,410.9Zm-3,1v1.88h1.57a1.67,1.67,0,0,0,.7-0.11,0.79,0.79,0,0,0,.41-0.79,0.88,0.88,0,0,0-.4-0.85,1.45,1.45,0,0,0-.68-0.12h-1.61Zm1.25-2.76a5.13,5.13,0,1,1-5.13,5.13,5.13,5.13,0,0,1,5.13-5.13m0-1.29a6.42,6.42,0,1,0,6.42,6.42,6.42,6.42,0,0,0-6.42-6.42h0Z" transform="translate(-206 -295.81)"/></svg>